<?xml version="1.0" encoding="utf-8"?>
<!-- Generator: Adobe Illustrator 26.5.0, SVG Export Plug-In . SVG Version: 6.00 Build 0)  -->
<svg version="1.1" id="레이어_1" xmlns="http://www.w3.org/2000/svg" xmlns:xlink="http://www.w3.org/1999/xlink" x="0px"
	 y="0px" viewBox="0 0 400 104.9" style="enable-background:new 0 0 400 104.9;" xml:space="preserve">
<mask id="mask">
<path d="M84.2,104.9c-19.8,0-39.8-5-57-14.8C21.1,86.6,0.9,73.6,0,52.9c0-0.3,0-0.7,0-1c0.9-20.7,21.1-33.7,27.2-37.1
	C54.6-0.7,88.8-4.3,118.6,5.3c27,8.7,55.2,24.7,81.4,46.5c26.3-21.8,54.4-37.9,81.4-46.5c29.8-9.6,63.9-6,91.3,9.5
	c6.2,3.5,26.3,16.5,27.2,37.1l0,1c-0.9,20.7-21.1,33.7-27.2,37.1c-27.4,15.5-61.5,19.1-91.3,9.5c-27.9-8.9-55.2-24.7-81.2-46.9
	l-0.3-0.2l-0.3,0.2c-26,22.2-53.3,38-81.2,46.9C107.5,103.1,95.9,104.9,84.2,104.9z M84.2,0.5c-19.7,0-39.6,5-56.8,14.7
	c-6.1,3.5-26.1,16.3-27,36.7c0,0.3,0,0.7,0,1c0.9,20.4,20.9,33.3,27,36.7c27.3,15.4,61.3,19,90.9,9.5c27.8-8.9,55.1-24.7,81-46.8
	l0.2-0.2c-26.2-21.7-54.3-37.8-81.2-46.4C107.4,2.2,95.9,0.5,84.2,0.5z M200.4,52.1l0.2,0.2c25.9,22.2,53.2,37.9,81,46.8
	c29.7,9.5,63.7,6,90.9-9.5c6.1-3.5,26.1-16.3,27-36.7l0-1c-0.9-20.4-20.9-33.3-27-36.7c-27.3-15.4-61.3-19-90.9-9.5
	C254.7,14.4,226.6,30.4,200.4,52.1z"/>
</mask>
</svg>
