<?xml version="1.0" encoding="utf-8"?>
<!-- Generator: Adobe Illustrator 26.5.0, SVG Export Plug-In . SVG Version: 6.00 Build 0)  -->
<svg version="1.1" id="레이어_1" xmlns="http://www.w3.org/2000/svg" xmlns:xlink="http://www.w3.org/1999/xlink" x="0px"
	 y="0px" viewBox="0 0 400 104.9" style="enable-background:new 0 0 400 104.9;" xml:space="preserve">
<style type="text/css">
	.st0{fill:none;stroke:#FFFFFF;stroke-width:0.5;}
</style>
<path id="패스_19933" class="st0" d="M399.8,52.9C399,70,384.7,83,372.7,89.9c-27.5,15.6-61.8,18.9-91.1,9.5
	c-29.3-9.4-56.7-26-81.1-46.9l-0.4-0.4l-0.4,0.4c-24.4,20.8-51.8,37.5-81.1,46.9c-29.3,9.4-63.6,6.1-91.1-9.5C15.3,83,1,70,0.3,52.9
	c0-0.3,0-0.7,0-1C1,34.9,15.3,21.8,27.4,15C54.9-0.6,89.2-3.9,118.5,5.5c28.9,9.3,57.1,26.4,81.4,46.6l0.1,0.1l0.1-0.1
	c24.3-20.2,52.6-37.3,81.4-46.6c29.3-9.4,63.6-6.1,91.1,9.5c12.1,6.8,26.4,19.9,27.1,36.9L399.8,52.9z"/>
</svg>
