<svg xmlns="http://www.w3.org/2000/svg" width="559.476" height="176.974" viewBox="0 0 559.476 176.974">
  <g id="그룹_21037" data-name="그룹 21037" transform="translate(-590.36 -5422.788)">
    <path id="패스_23308" data-name="패스 23308" d="M1.656,0H3.294V-5.616H9.288V-7.038H3.294v-4.068H9.7v-1.422H1.656ZM11.682,0h1.584V-9.126H11.682Zm1.584-11.25v-1.962H11.682v1.962ZM16.128,0h1.584V-4.824c0-1.836.684-3.15,2.412-3.15,1.386,0,1.926.918,1.926,2.3V0h1.584V-5.868c0-2.43-1.332-3.474-3.06-3.474a2.863,2.863,0,0,0-2.862,1.71,13.836,13.836,0,0,0-.072-1.494H16.11c.018.7.018,1.512.018,2.3ZM25.6-2.61C25.83-.972,27,.216,29.358.216c2.268,0,3.546-1.17,3.546-2.772,0-1.35-.558-2.268-3.33-2.934-1.674-.4-2.052-.738-2.052-1.422,0-.594.4-1.206,1.674-1.206a1.821,1.821,0,0,1,1.98,1.4h1.512c-.108-1.26-1.08-2.628-3.438-2.628-2.34,0-3.294,1.278-3.294,2.556,0,1.242.54,2.052,3.15,2.682,1.746.414,2.16.81,2.16,1.674,0,.828-.522,1.4-1.854,1.4A2.062,2.062,0,0,1,27.18-2.61ZM36.558,0V-13.212H34.974V0ZM46.8-4.284c.018-.234.018-.468.018-.756,0-1.944-.954-4.3-3.906-4.3-2.772,0-4.14,2.16-4.14,4.878,0,2.34,1.17,4.68,4.032,4.68A3.727,3.727,0,0,0,46.656-2.52h-1.6a2.1,2.1,0,0,1-2.2,1.422c-1.548,0-2.484-1.332-2.5-3.186Zm-6.39-1.1c.162-1.6.864-2.718,2.484-2.718,1.548,0,2.3,1.206,2.322,2.718ZM49.014,0H50.6V-4.428c0-2.3,1.188-3.294,3.06-3.348V-9.342a3.19,3.19,0,0,0-3.06,2.07c0-.882-.036-1.6-.054-1.854H49c0,.486.018,1.206.018,2.484ZM60.57,0h1.638V-4.716l1.6-1.458L68.616,0h2.016L64.98-7.236l5.382-5.292h-2.07c-1.962,2.034-5.148,5.184-6.084,6.156v-6.156H60.57ZM75.69-9.342c-2.754,0-4.3,2.088-4.3,4.788,0,2.754,1.584,4.77,4.194,4.77,2.79,0,4.3-2.16,4.3-4.806C79.884-7.452,78.228-9.342,75.69-9.342Zm-.072,1.314c1.71,0,2.646,1.422,2.646,3.474,0,2.07-.954,3.456-2.61,3.456-1.638,0-2.646-1.458-2.646-3.474C73.008-6.642,73.908-8.028,75.618-8.028ZM82.116,0H83.7V-4.428c0-2.3,1.188-3.294,3.06-3.348V-9.342a3.19,3.19,0,0,0-3.06,2.07c0-.882-.036-1.6-.054-1.854H82.1c0,.486.018,1.206.018,2.484ZM95.868-4.284c.018-.234.018-.468.018-.756,0-1.944-.954-4.3-3.906-4.3-2.772,0-4.14,2.16-4.14,4.878,0,2.34,1.17,4.68,4.032,4.68A3.727,3.727,0,0,0,95.724-2.52h-1.6a2.1,2.1,0,0,1-2.2,1.422c-1.548,0-2.484-1.332-2.5-3.186Zm-6.39-1.1c.162-1.6.864-2.718,2.484-2.718,1.548,0,2.3,1.206,2.322,2.718Zm15.408-.972c0-2.07-1.242-2.988-3.474-2.988-2.628,0-3.4,1.44-3.528,2.7h1.53c.162-.7.432-1.458,1.944-1.458,1.71,0,1.962.972,1.962,1.782v.774h-1.548c-2.718,0-4.32.936-4.32,2.97A2.764,2.764,0,0,0,100.53.216a2.908,2.908,0,0,0,2.826-1.4A4.707,4.707,0,0,0,103.5,0h1.512a14.159,14.159,0,0,1-.126-2Zm-1.548,2.2c0,1.656-.288,3.132-2.484,3.132a1.6,1.6,0,0,1-1.782-1.638c0-1.278.972-1.782,2.79-1.782h1.476Zm9.486-8.37V0h1.656V-12.528ZM117.468,0h1.584V-4.824c0-1.836.684-3.15,2.412-3.15,1.386,0,1.926.918,1.926,2.3V0h1.584V-5.868c0-2.43-1.332-3.474-3.06-3.474a2.863,2.863,0,0,0-2.862,1.71,13.836,13.836,0,0,0-.072-1.494h-1.53c.018.7.018,1.512.018,2.3Zm16-2.79A2.172,2.172,0,0,1,131.292-1.1c-1.584,0-2.466-1.386-2.466-3.474,0-2.07.918-3.456,2.52-3.456A2.022,2.022,0,0,1,133.47-6.3h1.566a3.4,3.4,0,0,0-3.654-3.042c-2.718,0-4.176,2.25-4.176,4.824,0,2.934,1.548,4.734,4.068,4.734a3.612,3.612,0,0,0,3.762-3.006ZM138.618,0V-2.664h-1.656V0ZM9.9,28.454a3.219,3.219,0,0,1-3.24,2.322c-2.9,0-3.96-2.592-3.96-5.058,0-2.52,1.116-5.04,3.888-5.04a3.16,3.16,0,0,1,3.33,2.394h1.656c-.378-2.088-1.98-3.78-4.932-3.78-3.8,0-5.688,3.078-5.688,6.48,0,3.546,1.89,6.39,5.634,6.39a4.755,4.755,0,0,0,4.986-3.708Zm7.632-5.8c-2.754,0-4.3,2.088-4.3,4.788,0,2.754,1.584,4.77,4.194,4.77,2.79,0,4.3-2.16,4.3-4.806C21.726,24.548,20.07,22.658,17.532,22.658Zm-.072,1.314c1.71,0,2.646,1.422,2.646,3.474,0,2.07-.954,3.456-2.61,3.456-1.638,0-2.646-1.458-2.646-3.474C14.85,25.358,15.75,23.972,17.46,23.972Zm8.064,11.61V30.866a2.773,2.773,0,0,0,2.664,1.35c2.214,0,3.96-1.746,3.96-5.022,0-2.772-1.53-4.536-3.636-4.536a3.141,3.141,0,0,0-2.988,1.656c0-.594-.018-1.134-.054-1.44H23.94c.018.7.018,1.476.018,2.232V35.582Zm5-8.316c0,2.25-.882,3.618-2.556,3.618-1.908,0-2.52-1.314-2.52-3.456,0-2.232.756-3.42,2.646-3.42C29.646,24.008,30.528,25.322,30.528,27.266Zm2.79-4.392,3.42,9.486c-.54,1.512-.972,2.016-2.124,2.016-.252,0-.522-.018-.756-.036v1.368c.36.036.7.054.99.054,1.854,0,2.556-.666,3.474-3.348l3.276-9.54H40.014c-1.494,4.59-2.142,6.678-2.43,7.722h-.018c-.252-.936-1.062-3.348-2.538-7.722ZM43.47,32h1.584V27.572c0-2.3,1.188-3.294,3.06-3.348V22.658a3.19,3.19,0,0,0-3.06,2.07c0-.882-.036-1.6-.054-1.854H43.452c0,.486.018,1.206.018,2.484Zm6.39,0h1.584V22.874H49.86Zm1.584-11.25V18.788H49.86V20.75ZM61.83,25.5c0-.864.018-2.106.018-2.628H60.372c-.018.18-.072.792-.09,1.206-.2-.612-.936-1.422-2.682-1.422-2.2,0-3.942,1.818-3.942,4.788,0,2.682,1.53,4.518,3.78,4.518a2.8,2.8,0,0,0,2.844-1.6V31.1c0,2.088-.5,3.4-2.574,3.4a2.09,2.09,0,0,1-2.25-1.53h-1.6c.162,1.242,1.008,2.79,3.78,2.79,2.988,0,4.194-1.656,4.194-4.59ZM55.3,27.374c0-1.962.864-3.384,2.556-3.384,1.944,0,2.484,1.224,2.484,3.276,0,2.016-.576,3.348-2.538,3.348C56.3,30.614,55.3,29.3,55.3,27.374Zm9.4-8.586V32h1.584V27.014c0-1.908.72-2.988,2.358-2.988,1.332,0,1.98.864,1.98,2.412V32H72.2V26.168c0-2.718-1.62-3.51-3.078-3.51a3.026,3.026,0,0,0-2.844,1.566V18.788Zm9.09,5.364h1.584v5.724c0,1.512.612,2.25,2.034,2.25a4.2,4.2,0,0,0,1.368-.162V30.776a4.176,4.176,0,0,1-.792.072c-.828,0-1.044-.45-1.044-1.35V24.152h2.016V22.874H76.932v-2.7H75.366v2.7H73.782ZM109.584,32h1.638V26.384h5.994V24.962h-5.994V20.894h6.408V19.472h-8.046Zm10.026,0h1.584V22.874H119.61Zm1.584-11.25V18.788H119.61V20.75ZM124.056,32h1.584V27.176c0-1.836.684-3.15,2.412-3.15,1.386,0,1.926.918,1.926,2.3V32h1.584V26.132c0-2.43-1.332-3.474-3.06-3.474a2.863,2.863,0,0,0-2.862,1.71,13.836,13.836,0,0,0-.072-1.494h-1.53c.018.7.018,1.512.018,2.3Zm9.468-2.61c.234,1.638,1.4,2.826,3.762,2.826,2.268,0,3.546-1.17,3.546-2.772,0-1.35-.558-2.268-3.33-2.934-1.674-.4-2.052-.738-2.052-1.422,0-.594.4-1.206,1.674-1.206a1.82,1.82,0,0,1,1.98,1.4h1.512c-.108-1.26-1.08-2.628-3.438-2.628-2.34,0-3.294,1.278-3.294,2.556,0,1.242.54,2.052,3.15,2.682,1.746.414,2.16.81,2.16,1.674,0,.828-.522,1.4-1.854,1.4a2.062,2.062,0,0,1-2.232-1.584ZM144.486,32V18.788H142.9V32Zm10.242-4.284c.018-.234.018-.468.018-.756,0-1.944-.954-4.3-3.906-4.3-2.772,0-4.14,2.16-4.14,4.878,0,2.34,1.17,4.68,4.032,4.68a3.727,3.727,0,0,0,3.852-2.736h-1.6a2.1,2.1,0,0,1-2.2,1.422c-1.548,0-2.484-1.332-2.5-3.186Zm-6.39-1.1c.162-1.6.864-2.718,2.484-2.718,1.548,0,2.3,1.206,2.322,2.718Zm8.6,5.382h1.584V27.572c0-2.3,1.188-3.294,3.06-3.348V22.658a3.19,3.19,0,0,0-3.06,2.07c0-.882-.036-1.6-.054-1.854h-1.548c0,.486.018,1.206.018,2.484ZM168.5,32h1.638V27.284l1.6-1.458L176.544,32h2.016l-5.652-7.236,5.382-5.292h-2.07c-1.962,2.034-5.148,5.184-6.084,6.156V19.472H168.5Zm15.12-9.342c-2.754,0-4.3,2.088-4.3,4.788,0,2.754,1.584,4.77,4.194,4.77,2.79,0,4.3-2.16,4.3-4.806C187.812,24.548,186.156,22.658,183.618,22.658Zm-.072,1.314c1.71,0,2.646,1.422,2.646,3.474,0,2.07-.954,3.456-2.61,3.456-1.638,0-2.646-1.458-2.646-3.474C180.936,25.358,181.836,23.972,183.546,23.972Zm6.5,8.028h1.584V27.572c0-2.3,1.188-3.294,3.06-3.348V22.658a3.19,3.19,0,0,0-3.06,2.07c0-.882-.036-1.6-.054-1.854h-1.548c0,.486.018,1.206.018,2.484ZM203.8,27.716c.018-.234.018-.468.018-.756,0-1.944-.954-4.3-3.906-4.3-2.772,0-4.14,2.16-4.14,4.878,0,2.34,1.17,4.68,4.032,4.68a3.727,3.727,0,0,0,3.852-2.736h-1.6a2.1,2.1,0,0,1-2.2,1.422c-1.548,0-2.484-1.332-2.5-3.186Zm-6.39-1.1c.162-1.6.864-2.718,2.484-2.718,1.548,0,2.3,1.206,2.322,2.718Zm15.408-.972c0-2.07-1.242-2.988-3.474-2.988-2.628,0-3.4,1.44-3.528,2.7h1.53c.162-.7.432-1.458,1.944-1.458,1.71,0,1.962.972,1.962,1.782v.774H209.7c-2.718,0-4.32.936-4.32,2.97a2.764,2.764,0,0,0,3.078,2.79,2.908,2.908,0,0,0,2.826-1.4A4.707,4.707,0,0,0,211.428,32h1.512a14.16,14.16,0,0,1-.126-2Zm-1.548,2.2c0,1.656-.288,3.132-2.484,3.132A1.6,1.6,0,0,1,207,29.336c0-1.278.972-1.782,2.79-1.782h1.476Zm9.486-8.37V32h1.656V19.472ZM225.4,32h1.584V27.176c0-1.836.684-3.15,2.412-3.15,1.386,0,1.926.918,1.926,2.3V32H232.9V26.132c0-2.43-1.332-3.474-3.06-3.474a2.863,2.863,0,0,0-2.862,1.71,13.836,13.836,0,0,0-.072-1.494h-1.53c.018.7.018,1.512.018,2.3Zm16-2.79A2.172,2.172,0,0,1,239.22,30.9c-1.584,0-2.466-1.386-2.466-3.474,0-2.07.918-3.456,2.52-3.456A2.022,2.022,0,0,1,241.4,25.7h1.566a3.4,3.4,0,0,0-3.654-3.042c-2.718,0-4.176,2.25-4.176,4.824,0,2.934,1.548,4.734,4.068,4.734a3.612,3.612,0,0,0,3.762-3.006ZM246.546,32V29.336H244.89V32Zm14.274-3.762L262.206,32h1.782l-4.662-12.528h-2.034L252.828,32h1.656l1.35-3.762Zm-4.554-1.422c.954-2.808,1.692-4.932,2-5.994h.018c.27.954.918,2.7,2.124,5.994ZM267.462,32V18.788h-1.584V32Zm4.446,0V18.788h-1.584V32Zm7.6,0h1.584V27.572c0-2.3,1.188-3.294,3.06-3.348V22.658a3.19,3.19,0,0,0-3.06,2.07c0-.882-.036-1.6-.054-1.854h-1.548c0,.486.018,1.206.018,2.484Zm6.39,0h1.584V22.874h-1.584Zm1.584-11.25V18.788h-1.584V20.75ZM297.864,25.5c0-.864.018-2.106.018-2.628h-1.476c-.018.18-.072.792-.09,1.206-.2-.612-.936-1.422-2.682-1.422-2.2,0-3.942,1.818-3.942,4.788,0,2.682,1.53,4.518,3.78,4.518a2.8,2.8,0,0,0,2.844-1.6V31.1c0,2.088-.5,3.4-2.574,3.4a2.09,2.09,0,0,1-2.25-1.53h-1.6c.162,1.242,1.008,2.79,3.78,2.79,2.988,0,4.194-1.656,4.194-4.59Zm-6.534,1.872c0-1.962.864-3.384,2.556-3.384,1.944,0,2.484,1.224,2.484,3.276,0,2.016-.576,3.348-2.538,3.348C292.338,30.614,291.33,29.3,291.33,27.374Zm9.4-8.586V32h1.584V27.014c0-1.908.72-2.988,2.358-2.988,1.332,0,1.98.864,1.98,2.412V32h1.584V26.168c0-2.718-1.62-3.51-3.078-3.51a3.026,3.026,0,0,0-2.844,1.566V18.788Zm9.09,5.364H311.4v5.724c0,1.512.612,2.25,2.034,2.25a4.2,4.2,0,0,0,1.368-.162V30.776a4.176,4.176,0,0,1-.792.072c-.828,0-1.044-.45-1.044-1.35V24.152h2.016V22.874h-2.016v-2.7H311.4v2.7h-1.584Zm6.426,5.238c.234,1.638,1.4,2.826,3.762,2.826,2.268,0,3.546-1.17,3.546-2.772,0-1.35-.558-2.268-3.33-2.934-1.674-.4-2.052-.738-2.052-1.422,0-.594.4-1.206,1.674-1.206a1.82,1.82,0,0,1,1.98,1.4h1.512c-.108-1.26-1.08-2.628-3.438-2.628-2.34,0-3.294,1.278-3.294,2.556,0,1.242.54,2.052,3.15,2.682,1.746.414,2.16.81,2.16,1.674,0,.828-.522,1.4-1.854,1.4a2.062,2.062,0,0,1-2.232-1.584ZM330.48,32h1.584V27.572c0-2.3,1.188-3.294,3.06-3.348V22.658a3.19,3.19,0,0,0-3.06,2.07c0-.882-.036-1.6-.054-1.854h-1.548c0,.486.018,1.206.018,2.484Zm13.752-4.284c.018-.234.018-.468.018-.756,0-1.944-.954-4.3-3.906-4.3-2.772,0-4.14,2.16-4.14,4.878,0,2.34,1.17,4.68,4.032,4.68a3.727,3.727,0,0,0,3.852-2.736h-1.6a2.1,2.1,0,0,1-2.2,1.422c-1.548,0-2.484-1.332-2.5-3.186Zm-6.39-1.1c.162-1.6.864-2.718,2.484-2.718,1.548,0,2.3,1.206,2.322,2.718Zm7.938,2.772c.234,1.638,1.4,2.826,3.762,2.826,2.268,0,3.546-1.17,3.546-2.772,0-1.35-.558-2.268-3.33-2.934-1.674-.4-2.052-.738-2.052-1.422,0-.594.4-1.206,1.674-1.206a1.82,1.82,0,0,1,1.98,1.4h1.512c-.108-1.26-1.08-2.628-3.438-2.628-2.34,0-3.294,1.278-3.294,2.556,0,1.242.54,2.052,3.15,2.682,1.746.414,2.16.81,2.16,1.674,0,.828-.522,1.4-1.854,1.4a2.062,2.062,0,0,1-2.232-1.584Zm16.938-1.674c.018-.234.018-.468.018-.756,0-1.944-.954-4.3-3.906-4.3-2.772,0-4.14,2.16-4.14,4.878,0,2.34,1.17,4.68,4.032,4.68a3.727,3.727,0,0,0,3.852-2.736h-1.6a2.1,2.1,0,0,1-2.2,1.422c-1.548,0-2.484-1.332-2.5-3.186Zm-6.39-1.1c.162-1.6.864-2.718,2.484-2.718,1.548,0,2.3,1.206,2.322,2.718Zm8.6,5.382h1.584V27.572c0-2.3,1.188-3.294,3.06-3.348V22.658a3.19,3.19,0,0,0-3.06,2.07c0-.882-.036-1.6-.054-1.854h-1.548c0,.486.018,1.206.018,2.484Zm5.922-9.126L374.04,32h1.746l3.348-9.126h-1.6c-1.368,3.906-2.34,6.642-2.556,7.65h-.018c-.288-1.134-1.188-3.924-2.412-7.65Zm17.334,4.842c.018-.234.018-.468.018-.756,0-1.944-.954-4.3-3.906-4.3-2.772,0-4.14,2.16-4.14,4.878,0,2.34,1.17,4.68,4.032,4.68a3.727,3.727,0,0,0,3.852-2.736h-1.6a2.1,2.1,0,0,1-2.2,1.422c-1.548,0-2.484-1.332-2.5-3.186Zm-6.39-1.1c.162-1.6.864-2.718,2.484-2.718,1.548,0,2.3,1.206,2.322,2.718Zm14.724-7.83v5.04c-.234-.522-.954-1.17-2.574-1.17-2.52,0-4.086,2.07-4.086,4.878,0,2.772,1.44,4.68,3.8,4.68a2.847,2.847,0,0,0,2.862-1.512,8.956,8.956,0,0,0,.09,1.3h1.512c-.018-.882-.018-1.728-.018-2.574V18.788ZM391.5,27.482c0-2.214.99-3.492,2.61-3.492,2.052,0,2.484,1.278,2.484,3.312,0,2-.486,3.582-2.61,3.582C392.544,30.884,391.5,29.678,391.5,27.482ZM402.156,32V29.336H400.5V32ZM9.9,60.454a3.219,3.219,0,0,1-3.24,2.322c-2.9,0-3.96-2.592-3.96-5.058,0-2.52,1.116-5.04,3.888-5.04a3.16,3.16,0,0,1,3.33,2.394h1.656c-.378-2.088-1.98-3.78-4.932-3.78-3.8,0-5.688,3.078-5.688,6.48,0,3.546,1.89,6.39,5.634,6.39a4.755,4.755,0,0,0,4.986-3.708Zm12.132-3.726H15.8V52.894h6.534V51.472H14.184V64h8.244l.216-1.422H15.8V58.15h6.228Zm8.262-5.436c-3.8,0-5.886,2.862-5.886,6.444,0,3.6,2.052,6.444,5.742,6.444,3.942,0,5.868-3.06,5.868-6.516C36.018,53.938,33.822,51.292,30.294,51.292Zm-.072,1.422c2.754,0,4.068,2.286,4.068,4.986,0,2.664-1.17,5.058-4.068,5.058-2.7,0-4.068-2.376-4.068-5.076C26.154,55.018,27.4,52.714,30.222,52.714Zm35.37,4.014H59.364V52.894H65.9V51.472H57.744V64h8.244l.216-1.422h-6.84V58.15h6.228Zm9.774-1.854H73.782v4.752c0,2.286-.648,3.222-2.322,3.222-1.512,0-1.89-1.116-1.89-2.3v-5.67H68v5.994c0,2.574,1.476,3.348,3.024,3.348a2.7,2.7,0,0,0,2.754-1.584c.018.576.036,1.134.072,1.368h1.53c0-.54-.018-1.764-.018-2.664ZM78.246,64H79.83V59.176c0-1.836.684-3.15,2.412-3.15,1.386,0,1.926.918,1.926,2.3V64h1.584V58.132c0-2.43-1.332-3.474-3.06-3.474a2.863,2.863,0,0,0-2.862,1.71,13.836,13.836,0,0,0-.072-1.494h-1.53c.018.7.018,1.512.018,2.3Zm17.892-6.5c0-.864.018-2.106.018-2.628H94.68c-.018.18-.072.792-.09,1.206-.2-.612-.936-1.422-2.682-1.422-2.2,0-3.942,1.818-3.942,4.788,0,2.682,1.53,4.518,3.78,4.518a2.8,2.8,0,0,0,2.844-1.6V63.1c0,2.088-.5,3.4-2.574,3.4a2.09,2.09,0,0,1-2.25-1.53h-1.6c.162,1.242,1.008,2.79,3.78,2.79,2.988,0,4.194-1.656,4.194-4.59ZM89.6,59.374c0-1.962.864-3.384,2.556-3.384,1.944,0,2.484,1.224,2.484,3.276,0,2.016-.576,3.348-2.538,3.348C90.612,62.614,89.6,61.3,89.6,59.374ZM99,50.788V64h1.584V59.014c0-1.908.72-2.988,2.358-2.988,1.332,0,1.98.864,1.98,2.412V64h1.584V58.168c0-2.718-1.62-3.51-3.078-3.51a3.026,3.026,0,0,0-2.844,1.566V50.788Zm9.108,4.086,3.42,9.486c-.54,1.512-.972,2.016-2.124,2.016-.252,0-.522-.018-.756-.036v1.368c.36.036.7.054.99.054,1.854,0,2.556-.666,3.474-3.348l3.276-9.54H114.8c-1.494,4.59-2.142,6.678-2.43,7.722h-.018c-.252-.936-1.062-3.348-2.538-7.722Zm17.388,0h-1.584v4.752c0,2.286-.648,3.222-2.322,3.222-1.512,0-1.89-1.116-1.89-2.3v-5.67h-1.566v5.994c0,2.574,1.476,3.348,3.024,3.348a2.7,2.7,0,0,0,2.754-1.584c.018.576.036,1.134.072,1.368h1.53c0-.54-.018-1.764-.018-2.664ZM128.376,64h1.584V59.176c0-1.836.684-3.15,2.412-3.15,1.386,0,1.926.918,1.926,2.3V64h1.584V58.132c0-2.43-1.332-3.474-3.06-3.474a2.863,2.863,0,0,0-2.862,1.71,13.836,13.836,0,0,0-.072-1.494h-1.53c.018.7.018,1.512.018,2.3Zm15.408,0h1.638V59.284l1.6-1.458L151.83,64h2.016l-5.652-7.236,5.382-5.292h-2.07c-1.962,2.034-5.148,5.184-6.084,6.156V51.472h-1.638Zm11.61,0h1.584V54.874h-1.584Zm1.584-11.25V50.788h-1.584V52.75ZM159.84,64h1.566V58.942c0-1.728.7-2.916,2.16-2.916,1.44,0,1.764,1.044,1.764,2.214V64h1.548V58.762c0-1.62.648-2.736,2.142-2.736,1.422,0,1.8,1.116,1.8,2.16V64h1.548V58.006c0-2.466-1.386-3.348-2.88-3.348a3.106,3.106,0,0,0-2.9,1.638,2.515,2.515,0,0,0-2.538-1.638,2.82,2.82,0,0,0-2.646,1.62c0-.468-.036-1.134-.072-1.4h-1.512c.018.738.018,1.566.018,2.358ZM8.352,92.238,9.738,96H11.52L6.858,83.472H4.824L.36,96H2.016l1.35-3.762ZM3.8,90.816c.954-2.808,1.692-4.932,2-5.994h.018c.27.954.918,2.7,2.124,5.994Zm15.624-8.028v5.04c-.234-.522-.954-1.17-2.574-1.17-2.52,0-4.086,2.07-4.086,4.878,0,2.772,1.44,4.68,3.8,4.68A2.847,2.847,0,0,0,19.422,94.7a8.954,8.954,0,0,0,.09,1.3h1.512c-.018-.882-.018-1.728-.018-2.574V82.788ZM14.4,91.482c0-2.214.99-3.492,2.61-3.492,2.052,0,2.484,1.278,2.484,3.312,0,2-.486,3.582-2.61,3.582C15.444,94.884,14.4,93.678,14.4,91.482Zm15.48-8.694v5.04c-.234-.522-.954-1.17-2.574-1.17-2.52,0-4.086,2.07-4.086,4.878,0,2.772,1.44,4.68,3.8,4.68A2.847,2.847,0,0,0,29.88,94.7a8.954,8.954,0,0,0,.09,1.3h1.512c-.018-.882-.018-1.728-.018-2.574V82.788Zm-5.022,8.694c0-2.214.99-3.492,2.61-3.492,2.052,0,2.484,1.278,2.484,3.312,0,2-.486,3.582-2.61,3.582C25.9,94.884,24.858,93.678,24.858,91.482ZM34.326,96H35.91V91.572c0-2.3,1.188-3.294,3.06-3.348V86.658a3.19,3.19,0,0,0-3.06,2.07c0-.882-.036-1.6-.054-1.854H34.308c0,.486.018,1.206.018,2.484Zm13.752-4.284c.018-.234.018-.468.018-.756,0-1.944-.954-4.3-3.906-4.3-2.772,0-4.14,2.16-4.14,4.878,0,2.34,1.17,4.68,4.032,4.68a3.727,3.727,0,0,0,3.852-2.736h-1.6a2.1,2.1,0,0,1-2.2,1.422c-1.548,0-2.484-1.332-2.5-3.186Zm-6.39-1.1c.162-1.6.864-2.718,2.484-2.718,1.548,0,2.3,1.206,2.322,2.718Zm7.938,2.772c.234,1.638,1.4,2.826,3.762,2.826,2.268,0,3.546-1.17,3.546-2.772,0-1.35-.558-2.268-3.33-2.934-1.674-.4-2.052-.738-2.052-1.422,0-.594.4-1.206,1.674-1.206a1.821,1.821,0,0,1,1.98,1.4h1.512c-.108-1.26-1.08-2.628-3.438-2.628-2.34,0-3.294,1.278-3.294,2.556,0,1.242.54,2.052,3.15,2.682,1.746.414,2.16.81,2.16,1.674,0,.828-.522,1.4-1.854,1.4A2.062,2.062,0,0,1,51.21,93.39Zm8.82,0c.234,1.638,1.4,2.826,3.762,2.826,2.268,0,3.546-1.17,3.546-2.772,0-1.35-.558-2.268-3.33-2.934-1.674-.4-2.052-.738-2.052-1.422,0-.594.4-1.206,1.674-1.206a1.821,1.821,0,0,1,1.98,1.4h1.512c-.108-1.26-1.08-2.628-3.438-2.628-2.34,0-3.294,1.278-3.294,2.556,0,1.242.54,2.052,3.15,2.682,1.746.414,2.16.81,2.16,1.674,0,.828-.522,1.4-1.854,1.4A2.062,2.062,0,0,1,60.03,93.39Zm28.044.018a3.4,3.4,0,0,0,3.672,2.79c3.528,0,4.194-3.69,4.194-6.8,0-3.132-1.116-5.454-4.05-5.454a3.8,3.8,0,0,0-4,3.978,3.511,3.511,0,0,0,3.636,3.762,3.006,3.006,0,0,0,2.826-1.4c-.054,1.494-.252,4.608-2.556,4.608a2,2,0,0,1-2.106-1.476Zm3.78-8.136a2.384,2.384,0,0,1,2.322,2.646,2.13,2.13,0,0,1-2.376,2.448,2.239,2.239,0,0,1-2.268-2.52C87.948,86.406,88.65,85.272,90.27,85.272ZM104.058,96l.234-1.386h-6.21c.288-.918,1.152-1.854,2.79-3.114,2.2-1.692,2.952-2.394,2.952-4.194,0-1.656-1.026-3.366-3.69-3.366a3.664,3.664,0,0,0-3.906,3.528h1.548c.252-1.458.918-2.2,2.358-2.2a1.878,1.878,0,0,1,2.052,2.07c0,1.314-.5,1.782-2.412,3.222-2.448,1.854-3.564,3.618-3.564,5.346V96Zm1.656-5.328v1.44h4.716v-1.44ZM116.316,96V84.1h-1.188a7.452,7.452,0,0,1-2.88,1.692v1.278a7.873,7.873,0,0,0,2.448-1.026V96Zm6.84.216c2.448,0,4.212-1.35,4.212-3.618a3.14,3.14,0,0,0-2.106-3.06,2.481,2.481,0,0,0,1.638-2.466c0-1.818-1.368-3.132-3.582-3.132-2.448,0-3.744,1.332-3.744,3.168a2.656,2.656,0,0,0,1.656,2.5,3.219,3.219,0,0,0-2.16,3.042C119.07,94.848,120.852,96.216,123.156,96.216Zm.072-1.314a2.287,2.287,0,0,1-2.52-2.322,2.208,2.208,0,0,1,2.52-2.286c1.566,0,2.52.792,2.52,2.286A2.232,2.232,0,0,1,123.228,94.9Zm.036-9.648a1.842,1.842,0,0,1,2.07,1.908c0,1.1-.63,1.782-2.052,1.782-1.494,0-2.142-.846-2.142-1.836C121.14,86.01,121.752,85.254,123.264,85.254Zm6.354,12.816a10.738,10.738,0,0,0,1.6-4.716h-1.6a13.057,13.057,0,0,1-1.3,4.716Zm9-14.6V96h1.656V83.472Zm3.6,4.68H143.8v5.724c0,1.512.612,2.25,2.034,2.25a4.2,4.2,0,0,0,1.368-.162V94.776a4.176,4.176,0,0,1-.792.072c-.828,0-1.044-.45-1.044-1.35V88.152h2.016V86.874h-2.016v-2.7H143.8v2.7h-1.584Zm13.9,1.494c0-2.07-1.242-2.988-3.474-2.988-2.628,0-3.4,1.44-3.528,2.7h1.53c.162-.7.432-1.458,1.944-1.458,1.71,0,1.962.972,1.962,1.782v.774H153c-2.718,0-4.32.936-4.32,2.97a2.764,2.764,0,0,0,3.078,2.79,2.908,2.908,0,0,0,2.826-1.4A4.707,4.707,0,0,0,154.728,96h1.512a14.16,14.16,0,0,1-.126-2Zm-1.548,2.2c0,1.656-.288,3.132-2.484,3.132a1.6,1.6,0,0,1-1.782-1.638c0-1.278.972-1.782,2.79-1.782h1.476Zm11.826-.126c.018-.234.018-.468.018-.756,0-1.944-.954-4.3-3.906-4.3-2.772,0-4.14,2.16-4.14,4.878,0,2.34,1.17,4.68,4.032,4.68a3.727,3.727,0,0,0,3.852-2.736h-1.6a2.1,2.1,0,0,1-2.2,1.422c-1.548,0-2.484-1.332-2.5-3.186Zm-6.39-1.1c.162-1.6.864-2.718,2.484-2.718,1.548,0,2.3,1.206,2.322,2.718Zm7.758-3.744L170.406,96h1.764c1.026-3.618,1.836-6.408,2-7.4h.018c.2.99,1.08,4.068,1.962,7.4h1.71l2.808-9.126h-1.6c-1.422,5.148-1.782,6.516-2.016,7.488h-.018c-.144-.828-.576-2.322-2-7.488h-1.548c-1.3,4.536-1.944,6.822-2.106,7.668h-.018c-.162-.936-.81-3.384-1.944-7.668Zm18.36-.216c-2.754,0-4.3,2.088-4.3,4.788,0,2.754,1.584,4.77,4.194,4.77,2.79,0,4.3-2.16,4.3-4.806C190.314,88.548,188.658,86.658,186.12,86.658Zm-.072,1.314c1.71,0,2.646,1.422,2.646,3.474,0,2.07-.954,3.456-2.61,3.456-1.638,0-2.646-1.458-2.646-3.474C183.438,89.358,184.338,87.972,186.048,87.972Zm6.5,8.028h1.584V91.176c0-1.836.684-3.15,2.412-3.15,1.386,0,1.926.918,1.926,2.3V96h1.584V90.132c0-2.43-1.332-3.474-3.06-3.474a2.863,2.863,0,0,0-2.862,1.71,13.836,13.836,0,0,0-.072-1.494h-1.53c.018.7.018,1.512.018,2.3Zm9.954-5.328v1.44h4.716v-1.44Zm13.464-7.884v5.04c-.234-.522-.954-1.17-2.574-1.17-2.52,0-4.086,2.07-4.086,4.878,0,2.772,1.44,4.68,3.8,4.68a2.847,2.847,0,0,0,2.862-1.512,8.954,8.954,0,0,0,.09,1.3h1.512c-.018-.882-.018-1.728-.018-2.574V82.788Zm-5.022,8.694c0-2.214.99-3.492,2.61-3.492,2.052,0,2.484,1.278,2.484,3.312,0,2-.486,3.582-2.61,3.582C211.986,94.884,210.942,93.678,210.942,91.482Zm13.122-4.824c-2.754,0-4.3,2.088-4.3,4.788,0,2.754,1.584,4.77,4.194,4.77,2.79,0,4.3-2.16,4.3-4.806C228.258,88.548,226.6,86.658,224.064,86.658Zm-.072,1.314c1.71,0,2.646,1.422,2.646,3.474,0,2.07-.954,3.456-2.61,3.456-1.638,0-2.646-1.458-2.646-3.474C221.382,89.358,222.282,87.972,223.992,87.972ZM230.49,96h1.584V91.176c0-1.836.684-3.15,2.412-3.15,1.386,0,1.926.918,1.926,2.3V96H238V90.132c0-2.43-1.332-3.474-3.06-3.474a2.863,2.863,0,0,0-2.862,1.71A13.836,13.836,0,0,0,232,86.874h-1.53c.018.7.018,1.512.018,2.3Zm17.892-6.5c0-.864.018-2.106.018-2.628h-1.476c-.018.18-.072.792-.09,1.206-.2-.612-.936-1.422-2.682-1.422-2.2,0-3.942,1.818-3.942,4.788,0,2.682,1.53,4.518,3.78,4.518a2.8,2.8,0,0,0,2.844-1.6V95.1c0,2.088-.5,3.4-2.574,3.4a2.09,2.09,0,0,1-2.25-1.53h-1.6c.162,1.242,1.008,2.79,3.78,2.79,2.988,0,4.194-1.656,4.194-4.59Zm-6.534,1.872c0-1.962.864-3.384,2.556-3.384,1.944,0,2.484,1.224,2.484,3.276,0,2.016-.576,3.348-2.538,3.348C242.856,94.614,241.848,93.3,241.848,91.374Zm9.522,6.7a10.738,10.738,0,0,0,1.6-4.716h-1.6a13.057,13.057,0,0,1-1.3,4.716ZM264.8,96V91.428a.608.608,0,0,1,.072-.324l4.554-7.632h-1.782c-1.17,2.034-3.042,5.292-3.582,6.372-.576-1.1-2.394-4.338-3.528-6.372h-1.908l4.41,7.6a.543.543,0,0,1,.09.342V96Zm8.136-9.342c-2.754,0-4.3,2.088-4.3,4.788,0,2.754,1.584,4.77,4.194,4.77,2.79,0,4.3-2.16,4.3-4.806C277.128,88.548,275.472,86.658,272.934,86.658Zm-.072,1.314c1.71,0,2.646,1.422,2.646,3.474,0,2.07-.954,3.456-2.61,3.456-1.638,0-2.646-1.458-2.646-3.474C270.252,89.358,271.152,87.972,272.862,87.972ZM279.36,96h1.584V91.176c0-1.836.684-3.15,2.412-3.15,1.386,0,1.926.918,1.926,2.3V96h1.584V90.132c0-2.43-1.332-3.474-3.06-3.474a2.863,2.863,0,0,0-2.862,1.71,13.84,13.84,0,0,0-.072-1.494h-1.53c.018.7.018,1.512.018,2.3Zm17.892-6.5c0-.864.018-2.106.018-2.628h-1.476c-.018.18-.072.792-.09,1.206-.2-.612-.936-1.422-2.682-1.422-2.2,0-3.942,1.818-3.942,4.788,0,2.682,1.53,4.518,3.78,4.518a2.8,2.8,0,0,0,2.844-1.6V95.1c0,2.088-.5,3.4-2.574,3.4a2.09,2.09,0,0,1-2.25-1.53h-1.6c.162,1.242,1.008,2.79,3.78,2.79,2.988,0,4.194-1.656,4.194-4.59Zm-6.534,1.872c0-1.962.864-3.384,2.556-3.384,1.944,0,2.484,1.224,2.484,3.276,0,2.016-.576,3.348-2.538,3.348C291.726,94.614,290.718,93.3,290.718,91.374Zm8.46,2.016c.234,1.638,1.4,2.826,3.762,2.826,2.268,0,3.546-1.17,3.546-2.772,0-1.35-.558-2.268-3.33-2.934-1.674-.4-2.052-.738-2.052-1.422,0-.594.4-1.206,1.674-1.206a1.82,1.82,0,0,1,1.98,1.4h1.512c-.108-1.26-1.08-2.628-3.438-2.628-2.34,0-3.294,1.278-3.294,2.556,0,1.242.54,2.052,3.15,2.682,1.746.414,2.16.81,2.16,1.674,0,.828-.522,1.4-1.854,1.4a2.062,2.062,0,0,1-2.232-1.584Zm16.38-3.744c0-2.07-1.242-2.988-3.474-2.988-2.628,0-3.4,1.44-3.528,2.7h1.53c.162-.7.432-1.458,1.944-1.458,1.71,0,1.962.972,1.962,1.782v.774h-1.548c-2.718,0-4.32.936-4.32,2.97a2.764,2.764,0,0,0,3.078,2.79,2.908,2.908,0,0,0,2.826-1.4A4.707,4.707,0,0,0,314.172,96h1.512a14.161,14.161,0,0,1-.126-2Zm-1.548,2.2c0,1.656-.288,3.132-2.484,3.132a1.6,1.6,0,0,1-1.782-1.638c0-1.278.972-1.782,2.79-1.782h1.476ZM318.456,96h1.584V91.176c0-1.836.684-3.15,2.412-3.15,1.386,0,1.926.918,1.926,2.3V96h1.584V90.132c0-2.43-1.332-3.474-3.06-3.474a2.863,2.863,0,0,0-2.862,1.71,13.84,13.84,0,0,0-.072-1.494h-1.53c.018.7.018,1.512.018,2.3Zm9.954-5.328v1.44h4.716v-1.44Zm15.084-1.17c0-.864.018-2.106.018-2.628h-1.476c-.018.18-.072.792-.09,1.206-.2-.612-.936-1.422-2.682-1.422-2.2,0-3.942,1.818-3.942,4.788,0,2.682,1.53,4.518,3.78,4.518a2.8,2.8,0,0,0,2.844-1.6V95.1c0,2.088-.5,3.4-2.574,3.4a2.09,2.09,0,0,1-2.25-1.53h-1.6c.162,1.242,1.008,2.79,3.78,2.79,2.988,0,4.194-1.656,4.194-4.59Zm-6.534,1.872c0-1.962.864-3.384,2.556-3.384,1.944,0,2.484,1.224,2.484,3.276,0,2.016-.576,3.348-2.538,3.348C337.968,94.614,336.96,93.3,336.96,91.374Zm16.722-4.5H352.1v4.752c0,2.286-.648,3.222-2.322,3.222-1.512,0-1.89-1.116-1.89-2.3v-5.67H346.32v5.994c0,2.574,1.476,3.348,3.024,3.348a2.7,2.7,0,0,0,2.754-1.584c.018.576.036,1.134.072,1.368h1.53c0-.54-.018-1.764-.018-2.664Zm2.88,11.2a10.738,10.738,0,0,0,1.6-4.716h-1.6a13.056,13.056,0,0,1-1.3,4.716Zm8.082-5.562c.27,1.926,1.62,3.654,4.77,3.654,3.06,0,4.554-1.584,4.554-3.6,0-1.62-.63-3.006-4.194-3.87-2.2-.54-2.9-1.008-2.9-2.178,0-1.188.846-1.872,2.376-1.872a2.432,2.432,0,0,1,2.754,2.016H373.7c-.18-1.638-1.4-3.366-4.392-3.366-2.79,0-4.158,1.512-4.158,3.384,0,1.764,1.026,2.772,3.978,3.492,2.5.594,3.114,1.3,3.114,2.556,0,1.188-.774,2.106-2.718,2.106a2.864,2.864,0,0,1-3.186-2.322Zm19.152-.792c.018-.234.018-.468.018-.756,0-1.944-.954-4.3-3.906-4.3-2.772,0-4.14,2.16-4.14,4.878,0,2.34,1.17,4.68,4.032,4.68a3.727,3.727,0,0,0,3.852-2.736h-1.6a2.1,2.1,0,0,1-2.2,1.422c-1.548,0-2.484-1.332-2.5-3.186Zm-6.39-1.1c.162-1.6.864-2.718,2.484-2.718,1.548,0,2.3,1.206,2.322,2.718Zm12.366-3.96c-2.754,0-4.3,2.088-4.3,4.788,0,2.754,1.584,4.77,4.194,4.77,2.79,0,4.3-2.16,4.3-4.806C393.966,88.548,392.31,86.658,389.772,86.658Zm-.072,1.314c1.71,0,2.646,1.422,2.646,3.474,0,2.07-.954,3.456-2.61,3.456-1.638,0-2.646-1.458-2.646-3.474C387.09,89.358,387.99,87.972,389.7,87.972Zm13.824-1.1H401.94v4.752c0,2.286-.648,3.222-2.322,3.222-1.512,0-1.89-1.116-1.89-2.3v-5.67h-1.566v5.994c0,2.574,1.476,3.348,3.024,3.348a2.7,2.7,0,0,0,2.754-1.584c.018.576.036,1.134.072,1.368h1.53c0-.54-.018-1.764-.018-2.664ZM407.988,96V82.788H406.4V96Zm2.862,2.07a10.738,10.738,0,0,0,1.6-4.716h-1.6a13.056,13.056,0,0,1-1.3,4.716Zm13.194-7.578c2.25,0,2.754.774,2.754,2.556V93.3a8.381,8.381,0,0,0,.216,2.7h1.62a8.572,8.572,0,0,1-.18-2.484v-.54c0-2.16-.882-2.934-1.908-3.2a2.854,2.854,0,0,0,2.142-2.952c0-1.944-1.368-3.348-3.942-3.348h-4.9V96h1.638V90.492Zm-2.556-5.616H424.4c1.692,0,2.556.756,2.556,2.088,0,1.4-.828,2.124-2.754,2.124h-2.718Zm17.172,6.84c.018-.234.018-.468.018-.756,0-1.944-.954-4.3-3.906-4.3-2.772,0-4.14,2.16-4.14,4.878,0,2.34,1.17,4.68,4.032,4.68a3.727,3.727,0,0,0,3.852-2.736h-1.6a2.1,2.1,0,0,1-2.2,1.422c-1.548,0-2.484-1.332-2.5-3.186Zm-6.39-1.1c.162-1.6.864-2.718,2.484-2.718,1.548,0,2.3,1.206,2.322,2.718Zm10.17,8.964V94.866a2.773,2.773,0,0,0,2.664,1.35c2.214,0,3.96-1.746,3.96-5.022,0-2.772-1.53-4.536-3.636-4.536a3.141,3.141,0,0,0-2.988,1.656c0-.594-.018-1.134-.054-1.44h-1.53c.018.7.018,1.476.018,2.232V99.582Zm5-8.316c0,2.25-.882,3.618-2.556,3.618-1.908,0-2.52-1.314-2.52-3.456,0-2.232.756-3.42,2.646-3.42C446.562,88.008,447.444,89.322,447.444,91.266Zm11.2-4.392h-1.584v4.752c0,2.286-.648,3.222-2.322,3.222-1.512,0-1.89-1.116-1.89-2.3v-5.67h-1.566v5.994c0,2.574,1.476,3.348,3.024,3.348a2.7,2.7,0,0,0,2.754-1.584c.018.576.036,1.134.072,1.368h1.53c0-.54-.018-1.764-.018-2.664Zm2.88,6.066c0,1.008,0,2.034-.018,3.06h1.512a9.8,9.8,0,0,0,.072-1.206,2.661,2.661,0,0,0,2.682,1.422c2.574,0,3.978-2.2,3.978-4.968,0-2.7-1.44-4.59-3.744-4.59a2.973,2.973,0,0,0-2.9,1.512V82.788H461.52Zm6.606-1.656c0,2.214-.954,3.6-2.574,3.6-1.926,0-2.538-1.512-2.538-3.42,0-2.178.684-3.474,2.628-3.474C467.226,87.99,468.126,89.3,468.126,91.284ZM473.562,96V82.788h-1.584V96Zm2.862,0h1.584V86.874h-1.584Zm1.584-11.25V82.788h-1.584V84.75Zm8.5,8.46a2.172,2.172,0,0,1-2.178,1.692c-1.584,0-2.466-1.386-2.466-3.474,0-2.07.918-3.456,2.52-3.456A2.022,2.022,0,0,1,486.5,89.7h1.566a3.4,3.4,0,0,0-3.654-3.042c-2.718,0-4.176,2.25-4.176,4.824,0,2.934,1.548,4.734,4.068,4.734a3.612,3.612,0,0,0,3.762-3.006Zm12.042-6.552c-2.754,0-4.3,2.088-4.3,4.788,0,2.754,1.584,4.77,4.194,4.77,2.79,0,4.3-2.16,4.3-4.806C502.74,88.548,501.084,86.658,498.546,86.658Zm-.072,1.314c1.71,0,2.646,1.422,2.646,3.474,0,2.07-.954,3.456-2.61,3.456-1.638,0-2.646-1.458-2.646-3.474C495.864,89.358,496.764,87.972,498.474,87.972ZM506.934,96V88.152h1.836V86.874h-1.836v-.99c0-1.332.36-1.908,1.3-1.908a3.813,3.813,0,0,1,.792.09v-1.35a4.015,4.015,0,0,0-1.008-.108c-2.016,0-2.664,1.494-2.664,3.168v1.1h-1.458v1.278h1.458V96Zm8.46,0h1.638V91.284l1.6-1.458L523.44,96h2.016L519.8,88.764l5.382-5.292h-2.07c-1.962,2.034-5.148,5.184-6.084,6.156V83.472h-1.638Zm15.12-9.342c-2.754,0-4.3,2.088-4.3,4.788,0,2.754,1.584,4.77,4.194,4.77,2.79,0,4.3-2.16,4.3-4.806C534.708,88.548,533.052,86.658,530.514,86.658Zm-.072,1.314c1.71,0,2.646,1.422,2.646,3.474,0,2.07-.954,3.456-2.61,3.456-1.638,0-2.646-1.458-2.646-3.474C527.832,89.358,528.732,87.972,530.442,87.972ZM536.94,96h1.584V91.572c0-2.3,1.188-3.294,3.06-3.348V86.658a3.19,3.19,0,0,0-3.06,2.07c0-.882-.036-1.6-.054-1.854h-1.548c0,.486.018,1.206.018,2.484Zm13.752-4.284c.018-.234.018-.468.018-.756,0-1.944-.954-4.3-3.906-4.3-2.772,0-4.14,2.16-4.14,4.878,0,2.34,1.17,4.68,4.032,4.68a3.727,3.727,0,0,0,3.852-2.736h-1.6a2.1,2.1,0,0,1-2.2,1.422c-1.548,0-2.484-1.332-2.5-3.186Zm-6.39-1.1c.162-1.6.864-2.718,2.484-2.718,1.548,0,2.3,1.206,2.322,2.718Zm15.408-.972c0-2.07-1.242-2.988-3.474-2.988-2.628,0-3.4,1.44-3.528,2.7h1.53c.162-.7.432-1.458,1.944-1.458,1.71,0,1.962.972,1.962,1.782v.774H556.6c-2.718,0-4.32.936-4.32,2.97a2.764,2.764,0,0,0,3.078,2.79,2.908,2.908,0,0,0,2.826-1.4A4.706,4.706,0,0,0,558.324,96h1.512a14.155,14.155,0,0,1-.126-2Zm-1.548,2.2c0,1.656-.288,3.132-2.484,3.132a1.6,1.6,0,0,1-1.782-1.638c0-1.278.972-1.782,2.79-1.782h1.476ZM1.656,128H6.57c2.376,0,4.176-1.314,4.176-3.672a3.068,3.068,0,0,0-2.214-2.988,2.759,2.759,0,0,0,1.8-2.736c0-1.728-1.224-3.132-3.87-3.132H1.656Zm1.62-7.308v-3.834H6.39c1.476,0,2.268.774,2.268,1.89,0,1.224-.7,1.944-2.52,1.944Zm0,1.368H6.048c2.124,0,2.988.918,2.988,2.268,0,1.566-1.1,2.3-2.664,2.3h-3.1Zm17.082-3.186H18.774v4.752c0,2.286-.648,3.222-2.322,3.222-1.512,0-1.89-1.116-1.89-2.3v-5.67H13v5.994c0,2.574,1.476,3.348,3.024,3.348a2.7,2.7,0,0,0,2.754-1.584c.018.576.036,1.134.072,1.368h1.53c0-.54-.018-1.764-.018-2.664ZM22.3,125.39c.234,1.638,1.4,2.826,3.762,2.826,2.268,0,3.546-1.17,3.546-2.772,0-1.35-.558-2.268-3.33-2.934-1.674-.4-2.052-.738-2.052-1.422,0-.594.4-1.206,1.674-1.206a1.821,1.821,0,0,1,1.98,1.4h1.512c-.108-1.26-1.08-2.628-3.438-2.628-2.34,0-3.294,1.278-3.294,2.556,0,1.242.54,2.052,3.15,2.682,1.746.414,2.16.81,2.16,1.674,0,.828-.522,1.4-1.854,1.4a2.062,2.062,0,0,1-2.232-1.584Zm9.5,2.61H33.39v-9.126H31.806Zm1.584-11.25v-1.962H31.806v1.962ZM36.252,128h1.584v-4.824c0-1.836.684-3.15,2.412-3.15,1.386,0,1.926.918,1.926,2.3V128h1.584v-5.868c0-2.43-1.332-3.474-3.06-3.474a2.863,2.863,0,0,0-2.862,1.71,13.836,13.836,0,0,0-.072-1.494h-1.53c.018.7.018,1.512.018,2.3ZM54,123.716c.018-.234.018-.468.018-.756,0-1.944-.954-4.3-3.906-4.3-2.772,0-4.14,2.16-4.14,4.878,0,2.34,1.17,4.68,4.032,4.68a3.727,3.727,0,0,0,3.852-2.736h-1.6a2.1,2.1,0,0,1-2.2,1.422c-1.548,0-2.484-1.332-2.5-3.186Zm-6.39-1.1c.162-1.6.864-2.718,2.484-2.718,1.548,0,2.3,1.206,2.322,2.718Zm7.938,2.772c.234,1.638,1.4,2.826,3.762,2.826,2.268,0,3.546-1.17,3.546-2.772,0-1.35-.558-2.268-3.33-2.934-1.674-.4-2.052-.738-2.052-1.422,0-.594.4-1.206,1.674-1.206a1.82,1.82,0,0,1,1.98,1.4H62.64c-.108-1.26-1.08-2.628-3.438-2.628-2.34,0-3.294,1.278-3.294,2.556,0,1.242.54,2.052,3.15,2.682,1.746.414,2.16.81,2.16,1.674,0,.828-.522,1.4-1.854,1.4a2.062,2.062,0,0,1-2.232-1.584Zm8.82,0c.234,1.638,1.4,2.826,3.762,2.826,2.268,0,3.546-1.17,3.546-2.772,0-1.35-.558-2.268-3.33-2.934-1.674-.4-2.052-.738-2.052-1.422,0-.594.4-1.206,1.674-1.206a1.82,1.82,0,0,1,1.98,1.4H71.46c-.108-1.26-1.08-2.628-3.438-2.628-2.34,0-3.294,1.278-3.294,2.556,0,1.242.54,2.052,3.15,2.682,1.746.414,2.16.81,2.16,1.674,0,.828-.522,1.4-1.854,1.4a2.062,2.062,0,0,1-2.232-1.584ZM80.478,128v-5c0-2.268,0-4.392-.09-5.814h.036c.774,1.4,4.842,8.1,6.5,10.818h2.07V115.472H87.426v4.9c0,2.034-.018,4.014.108,5.616h-.018c-.7-1.35-4.608-7.578-6.408-10.512h-2.2V128Zm18.7-9.126H97.6v4.752c0,2.286-.648,3.222-2.322,3.222-1.512,0-1.89-1.116-1.89-2.3v-5.67H91.818v5.994c0,2.574,1.476,3.348,3.024,3.348a2.7,2.7,0,0,0,2.754-1.584c.018.576.036,1.134.072,1.368H99.2c0-.54-.018-1.764-.018-2.664ZM102.06,128h1.566v-5.058c0-1.728.7-2.916,2.16-2.916,1.44,0,1.764,1.044,1.764,2.214V128H109.1v-5.238c0-1.62.648-2.736,2.142-2.736,1.422,0,1.8,1.116,1.8,2.16V128h1.548v-5.994c0-2.466-1.386-3.348-2.88-3.348a3.106,3.106,0,0,0-2.9,1.638,2.515,2.515,0,0,0-2.538-1.638,2.82,2.82,0,0,0-2.646,1.62c0-.468-.036-1.134-.072-1.4h-1.512c.018.738.018,1.566.018,2.358Zm15.408-3.06c0,1.008,0,2.034-.018,3.06h1.512a9.8,9.8,0,0,0,.072-1.206,2.661,2.661,0,0,0,2.682,1.422c2.574,0,3.978-2.2,3.978-4.968,0-2.7-1.44-4.59-3.744-4.59a2.973,2.973,0,0,0-2.9,1.512v-5.382h-1.584Zm6.606-1.656c0,2.214-.954,3.6-2.574,3.6-1.926,0-2.538-1.512-2.538-3.42,0-2.178.684-3.474,2.628-3.474C123.174,119.99,124.074,121.3,124.074,123.284Zm11.34.432c.018-.234.018-.468.018-.756,0-1.944-.954-4.3-3.906-4.3-2.772,0-4.14,2.16-4.14,4.878,0,2.34,1.17,4.68,4.032,4.68a3.727,3.727,0,0,0,3.852-2.736h-1.6a2.1,2.1,0,0,1-2.2,1.422c-1.548,0-2.484-1.332-2.5-3.186Zm-6.39-1.1c.162-1.6.864-2.718,2.484-2.718,1.548,0,2.3,1.206,2.322,2.718Zm8.6,5.382h1.584v-4.428c0-2.3,1.188-3.294,3.06-3.348v-1.566a3.19,3.19,0,0,0-3.06,2.07c0-.882-.036-1.6-.054-1.854H137.61c0,.486.018,1.206.018,2.484Zm32.832-9.27a3.194,3.194,0,0,0-3.492-2.79c-3.294,0-4.356,3.024-4.356,6.3,0,3.33.954,5.976,4.23,5.976,2.61,0,4-1.98,4-4.32,0-2.268-1.35-3.942-3.636-3.942a3.226,3.226,0,0,0-3.006,1.656c.054-2.5.7-4.374,2.7-4.374a1.875,1.875,0,0,1,2,1.494Zm-3.636,8.154c-1.962,0-2.448-1.908-2.448-2.88a2.409,2.409,0,0,1,2.5-2.718c1.818,0,2.322,1.4,2.322,2.736C169.2,125.5,168.534,126.884,166.824,126.884Zm7.632-7.9a1.99,1.99,0,0,1,2.178-1.71c1.314,0,2.016.72,2.016,1.8,0,1.242-.666,1.836-2.232,1.836h-.7v1.3h.846c1.6,0,2.574.72,2.574,2.3a2.222,2.222,0,0,1-2.412,2.394,2.43,2.43,0,0,1-2.556-1.962H172.6a3.7,3.7,0,0,0,4.05,3.276c2.934,0,4.1-1.836,4.1-3.726a2.905,2.905,0,0,0-2.07-2.988v-.036a2.464,2.464,0,0,0,1.566-2.448c0-1.584-1.116-3.078-3.564-3.078a3.441,3.441,0,0,0-3.762,3.042Zm16.056-2.826h-6.5c-.162,1.494-.612,4.878-.972,6.426l1.476.27a2.3,2.3,0,0,1,2.43-1.548c1.656,0,2.286,1.17,2.286,2.7,0,1.746-.792,2.9-2.412,2.9a2.312,2.312,0,0,1-2.394-1.872h-1.6a3.678,3.678,0,0,0,3.942,3.186c2.88,0,4.086-2.016,4.086-4.32,0-2.43-1.4-3.942-3.564-3.942a3.154,3.154,0,0,0-2.484.954c.126-.63.414-2.43.522-3.384h4.95Zm2.394,6.516v1.44h4.716v-1.44Zm10.836,5.544c2.448,0,4.212-1.35,4.212-3.618a3.14,3.14,0,0,0-2.106-3.06,2.481,2.481,0,0,0,1.638-2.466c0-1.818-1.368-3.132-3.582-3.132-2.448,0-3.744,1.332-3.744,3.168a2.656,2.656,0,0,0,1.656,2.5,3.219,3.219,0,0,0-2.16,3.042C199.656,126.848,201.438,128.216,203.742,128.216Zm.072-1.314a2.287,2.287,0,0,1-2.52-2.322,2.208,2.208,0,0,1,2.52-2.286c1.566,0,2.52.792,2.52,2.286A2.232,2.232,0,0,1,203.814,126.9Zm.036-9.648a1.842,1.842,0,0,1,2.07,1.908c0,1.1-.63,1.782-2.052,1.782-1.494,0-2.142-.846-2.142-1.836C201.726,118.01,202.338,117.254,203.85,117.254Zm5.526-1.1v1.386h6.1A27.535,27.535,0,0,0,210.924,128h1.638a27.192,27.192,0,0,1,4.59-10.548v-1.3Zm8.262,6.516v1.44h4.716v-1.44Zm10.926-6.732c-3.2,0-4.194,3.1-4.194,6.138,0,3.06.9,6.138,4.14,6.138,3.312,0,4.14-3.294,4.14-6.228C232.65,118.964,231.75,115.94,228.564,115.94Zm.018,1.35c2.016,0,2.412,2.43,2.412,4.716,0,2.448-.378,4.86-2.466,4.86s-2.484-2.538-2.484-4.788C226.044,119.468,226.512,117.29,228.582,117.29ZM238.518,128V116.1H237.33a7.452,7.452,0,0,1-2.88,1.692v1.278a7.874,7.874,0,0,0,2.448-1.026V128Zm4.5-9.018a1.99,1.99,0,0,1,2.178-1.71c1.314,0,2.016.72,2.016,1.8,0,1.242-.666,1.836-2.232,1.836h-.7v1.3h.846c1.6,0,2.574.72,2.574,2.3a2.222,2.222,0,0,1-2.412,2.394,2.43,2.43,0,0,1-2.556-1.962h-1.566a3.7,3.7,0,0,0,4.05,3.276c2.934,0,4.1-1.836,4.1-3.726a2.905,2.905,0,0,0-2.07-2.988v-.036a2.464,2.464,0,0,0,1.566-2.448c0-1.584-1.116-3.078-3.564-3.078a3.441,3.441,0,0,0-3.762,3.042Zm12.492-3.042c-3.2,0-4.194,3.1-4.194,6.138,0,3.06.9,6.138,4.14,6.138,3.312,0,4.14-3.294,4.14-6.228C259.6,118.964,258.7,115.94,255.51,115.94Zm.018,1.35c2.016,0,2.412,2.43,2.412,4.716,0,2.448-.378,4.86-2.466,4.86s-2.484-2.538-2.484-4.788C252.99,119.468,253.458,117.29,255.528,117.29ZM265.464,128V116.1h-1.188a7.452,7.452,0,0,1-2.88,1.692v1.278a7.874,7.874,0,0,0,2.448-1.026V128ZM9.5,152.728H3.276v-3.834H9.81v-1.422H1.656V160H9.9l.216-1.422H3.276V154.15H9.5Zm2.322,1.944v1.44h4.716v-1.44Zm13.086,2.538a2.172,2.172,0,0,1-2.178,1.692c-1.584,0-2.466-1.386-2.466-3.474,0-2.07.918-3.456,2.52-3.456a2.022,2.022,0,0,1,2.124,1.728h1.566a3.4,3.4,0,0,0-3.654-3.042c-2.718,0-4.176,2.25-4.176,4.824,0,2.934,1.548,4.734,4.068,4.734a3.612,3.612,0,0,0,3.762-3.006Zm7.4-6.552c-2.754,0-4.3,2.088-4.3,4.788,0,2.754,1.584,4.77,4.194,4.77,2.79,0,4.3-2.16,4.3-4.806C36.5,152.548,34.848,150.658,32.31,150.658Zm-.072,1.314c1.71,0,2.646,1.422,2.646,3.474,0,2.07-.954,3.456-2.61,3.456-1.638,0-2.646-1.458-2.646-3.474C29.628,153.358,30.528,151.972,32.238,151.972Zm6.5,8.028H40.3v-5.058c0-1.728.7-2.916,2.16-2.916,1.44,0,1.764,1.044,1.764,2.214V160h1.548v-5.238c0-1.62.648-2.736,2.142-2.736,1.422,0,1.8,1.116,1.8,2.16V160h1.548v-5.994c0-2.466-1.386-3.348-2.88-3.348a3.106,3.106,0,0,0-2.9,1.638,2.515,2.515,0,0,0-2.538-1.638,2.82,2.82,0,0,0-2.646,1.62c0-.468-.036-1.134-.072-1.4H38.718c.018.738.018,1.566.018,2.358Zm15.408,0H55.71v-5.058c0-1.728.7-2.916,2.16-2.916,1.44,0,1.764,1.044,1.764,2.214V160h1.548v-5.238c0-1.62.648-2.736,2.142-2.736,1.422,0,1.8,1.116,1.8,2.16V160h1.548v-5.994c0-2.466-1.386-3.348-2.88-3.348a3.106,3.106,0,0,0-2.9,1.638,2.515,2.515,0,0,0-2.538-1.638,2.82,2.82,0,0,0-2.646,1.62c0-.468-.036-1.134-.072-1.4H54.126c.018.738.018,1.566.018,2.358Zm22.788-4.284c.018-.234.018-.468.018-.756,0-1.944-.954-4.3-3.906-4.3-2.772,0-4.14,2.16-4.14,4.878,0,2.34,1.17,4.68,4.032,4.68a3.727,3.727,0,0,0,3.852-2.736h-1.6a2.1,2.1,0,0,1-2.2,1.422c-1.548,0-2.484-1.332-2.5-3.186Zm-6.39-1.1c.162-1.6.864-2.718,2.484-2.718,1.548,0,2.3,1.206,2.322,2.718Zm8.6,5.382H80.73v-4.428c0-2.3,1.188-3.294,3.06-3.348v-1.566a3.19,3.19,0,0,0-3.06,2.07c0-.882-.036-1.6-.054-1.854H79.128c0,.486.018,1.206.018,2.484Zm12.006-2.79a2.172,2.172,0,0,1-2.178,1.692c-1.584,0-2.466-1.386-2.466-3.474,0-2.07.918-3.456,2.52-3.456a2.022,2.022,0,0,1,2.124,1.728h1.566a3.4,3.4,0,0,0-3.654-3.042c-2.718,0-4.176,2.25-4.176,4.824,0,2.934,1.548,4.734,4.068,4.734a3.612,3.612,0,0,0,3.762-3.006Zm11.124-1.494c.018-.234.018-.468.018-.756,0-1.944-.954-4.3-3.906-4.3-2.772,0-4.14,2.16-4.14,4.878,0,2.34,1.17,4.68,4.032,4.68a3.727,3.727,0,0,0,3.852-2.736h-1.6a2.1,2.1,0,0,1-2.2,1.422c-1.548,0-2.484-1.332-2.5-3.186Zm-6.39-1.1c.162-1.6.864-2.718,2.484-2.718,1.548,0,2.3,1.206,2.322,2.718ZM109.53,160h7.956l.234-1.422h-6.534V147.472H109.53Zm10.26,0h1.584v-9.126H119.79Zm1.584-11.25v-1.962H119.79v1.962Zm8.5,8.46a2.172,2.172,0,0,1-2.178,1.692c-1.584,0-2.466-1.386-2.466-3.474,0-2.07.918-3.456,2.52-3.456a2.022,2.022,0,0,1,2.124,1.728h1.566a3.4,3.4,0,0,0-3.654-3.042c-2.718,0-4.176,2.25-4.176,4.824,0,2.934,1.548,4.734,4.068,4.734a3.612,3.612,0,0,0,3.762-3.006Zm11.124-1.494c.018-.234.018-.468.018-.756,0-1.944-.954-4.3-3.906-4.3-2.772,0-4.14,2.16-4.14,4.878,0,2.34,1.17,4.68,4.032,4.68a3.727,3.727,0,0,0,3.852-2.736h-1.6a2.1,2.1,0,0,1-2.2,1.422c-1.548,0-2.484-1.332-2.5-3.186Zm-6.39-1.1c.162-1.6.864-2.718,2.484-2.718,1.548,0,2.3,1.206,2.322,2.718Zm8.6,5.382h1.584v-4.824c0-1.836.684-3.15,2.412-3.15,1.386,0,1.926.918,1.926,2.3V160h1.584v-5.868c0-2.43-1.332-3.474-3.06-3.474a2.863,2.863,0,0,0-2.862,1.71,13.836,13.836,0,0,0-.072-1.494h-1.53c.018.7.018,1.512.018,2.3Zm9.468-2.61c.234,1.638,1.4,2.826,3.762,2.826,2.268,0,3.546-1.17,3.546-2.772,0-1.35-.558-2.268-3.33-2.934-1.674-.4-2.052-.738-2.052-1.422,0-.594.4-1.206,1.674-1.206a1.821,1.821,0,0,1,1.98,1.4h1.512c-.108-1.26-1.08-2.628-3.438-2.628-2.34,0-3.294,1.278-3.294,2.556,0,1.242.54,2.052,3.15,2.682,1.746.414,2.16.81,2.16,1.674,0,.828-.522,1.4-1.854,1.4a2.062,2.062,0,0,1-2.232-1.584Zm16.938-1.674c.018-.234.018-.468.018-.756,0-1.944-.954-4.3-3.906-4.3-2.772,0-4.14,2.16-4.14,4.878,0,2.34,1.17,4.68,4.032,4.68a3.727,3.727,0,0,0,3.852-2.736h-1.6a2.1,2.1,0,0,1-2.2,1.422c-1.548,0-2.484-1.332-2.5-3.186Zm-6.39-1.1c.162-1.6.864-2.718,2.484-2.718,1.548,0,2.3,1.206,2.322,2.718ZM198.072,160l.234-1.386H192.1c.288-.918,1.152-1.854,2.79-3.114,2.2-1.692,2.952-2.394,2.952-4.194,0-1.656-1.026-3.366-3.69-3.366a3.664,3.664,0,0,0-3.906,3.528h1.548c.252-1.458.918-2.2,2.358-2.2a1.878,1.878,0,0,1,2.052,2.07c0,1.314-.5,1.782-2.412,3.222-2.448,1.854-3.564,3.618-3.564,5.346V160Zm6.156-12.06c-3.2,0-4.194,3.1-4.194,6.138,0,3.06.9,6.138,4.14,6.138,3.312,0,4.14-3.294,4.14-6.228C208.314,150.964,207.414,147.94,204.228,147.94Zm.018,1.35c2.016,0,2.412,2.43,2.412,4.716,0,2.448-.378,4.86-2.466,4.86s-2.484-2.538-2.484-4.788C201.708,151.468,202.176,149.29,204.246,149.29ZM218.052,160l.234-1.386h-6.21c.288-.918,1.152-1.854,2.79-3.114,2.2-1.692,2.952-2.394,2.952-4.194,0-1.656-1.026-3.366-3.69-3.366a3.664,3.664,0,0,0-3.906,3.528h1.548c.252-1.458.918-2.2,2.358-2.2a1.878,1.878,0,0,1,2.052,2.07c0,1.314-.5,1.782-2.412,3.222-2.448,1.854-3.564,3.618-3.564,5.346V160Zm10.008,0,.234-1.386h-6.21c.288-.918,1.152-1.854,2.79-3.114,2.2-1.692,2.952-2.394,2.952-4.194,0-1.656-1.026-3.366-3.69-3.366a3.664,3.664,0,0,0-3.906,3.528h1.548c.252-1.458.918-2.2,2.358-2.2a1.878,1.878,0,0,1,2.052,2.07c0,1.314-.5,1.782-2.412,3.222-2.448,1.854-3.564,3.618-3.564,5.346V160Zm1.656-5.328v1.44h4.716v-1.44Zm6.678,1.836c.27,1.926,1.62,3.654,4.77,3.654,3.06,0,4.554-1.584,4.554-3.6,0-1.62-.63-3.006-4.194-3.87-2.2-.54-2.9-1.008-2.9-2.178,0-1.188.846-1.872,2.376-1.872a2.432,2.432,0,0,1,2.754,2.016h1.692c-.18-1.638-1.4-3.366-4.392-3.366-2.79,0-4.158,1.512-4.158,3.384,0,1.764,1.026,2.772,3.978,3.492,2.5.594,3.114,1.3,3.114,2.556,0,1.188-.774,2.106-2.718,2.106a2.864,2.864,0,0,1-3.186-2.322Zm19.152-.792c.018-.234.018-.468.018-.756,0-1.944-.954-4.3-3.906-4.3-2.772,0-4.14,2.16-4.14,4.878,0,2.34,1.17,4.68,4.032,4.68a3.727,3.727,0,0,0,3.852-2.736h-1.6a2.1,2.1,0,0,1-2.2,1.422c-1.548,0-2.484-1.332-2.5-3.186Zm-6.39-1.1c.162-1.6.864-2.718,2.484-2.718,1.548,0,2.3,1.206,2.322,2.718Zm12.366-3.96c-2.754,0-4.3,2.088-4.3,4.788,0,2.754,1.584,4.77,4.194,4.77,2.79,0,4.3-2.16,4.3-4.806C265.716,152.548,264.06,150.658,261.522,150.658Zm-.072,1.314c1.71,0,2.646,1.422,2.646,3.474,0,2.07-.954,3.456-2.61,3.456-1.638,0-2.646-1.458-2.646-3.474C258.84,153.358,259.74,151.972,261.45,151.972Zm13.824-1.1H273.69v4.752c0,2.286-.648,3.222-2.322,3.222-1.512,0-1.89-1.116-1.89-2.3v-5.67h-1.566v5.994c0,2.574,1.476,3.348,3.024,3.348a2.7,2.7,0,0,0,2.754-1.584c.018.576.036,1.134.072,1.368h1.53c0-.54-.018-1.764-.018-2.664ZM279.738,160V146.788h-1.584V160Zm7.668,0v-4.572a.608.608,0,0,1,.072-.324l4.554-7.632H290.25c-1.17,2.034-3.042,5.292-3.582,6.372-.576-1.1-2.394-4.338-3.528-6.372h-1.908l4.41,7.6a.543.543,0,0,1,.09.342V160Zm8.136-9.342c-2.754,0-4.3,2.088-4.3,4.788,0,2.754,1.584,4.77,4.194,4.77,2.79,0,4.3-2.16,4.3-4.806C299.736,152.548,298.08,150.658,295.542,150.658Zm-.072,1.314c1.71,0,2.646,1.422,2.646,3.474,0,2.07-.954,3.456-2.61,3.456-1.638,0-2.646-1.458-2.646-3.474C292.86,153.358,293.76,151.972,295.47,151.972Zm6.5,8.028h1.584v-4.824c0-1.836.684-3.15,2.412-3.15,1.386,0,1.926.918,1.926,2.3V160h1.584v-5.868c0-2.43-1.332-3.474-3.06-3.474a2.863,2.863,0,0,0-2.862,1.71,13.84,13.84,0,0,0-.072-1.494h-1.53c.018.7.018,1.512.018,2.3Zm17.892-6.5c0-.864.018-2.106.018-2.628H318.4c-.018.18-.072.792-.09,1.206-.2-.612-.936-1.422-2.682-1.422-2.2,0-3.942,1.818-3.942,4.788,0,2.682,1.53,4.518,3.78,4.518a2.8,2.8,0,0,0,2.844-1.6v.738c0,2.088-.5,3.4-2.574,3.4a2.09,2.09,0,0,1-2.25-1.53h-1.6c.162,1.242,1.008,2.79,3.78,2.79,2.988,0,4.194-1.656,4.194-4.59Zm-6.534,1.872c0-1.962.864-3.384,2.556-3.384,1.944,0,2.484,1.224,2.484,3.276,0,2.016-.576,3.348-2.538,3.348C314.334,158.614,313.326,157.3,313.326,155.374Zm8.46,2.016c.234,1.638,1.4,2.826,3.762,2.826,2.268,0,3.546-1.17,3.546-2.772,0-1.35-.558-2.268-3.33-2.934-1.674-.4-2.052-.738-2.052-1.422,0-.594.4-1.206,1.674-1.206a1.82,1.82,0,0,1,1.98,1.4h1.512c-.108-1.26-1.08-2.628-3.438-2.628-2.34,0-3.294,1.278-3.294,2.556,0,1.242.54,2.052,3.15,2.682,1.746.414,2.16.81,2.16,1.674,0,.828-.522,1.4-1.854,1.4a2.062,2.062,0,0,1-2.232-1.584Zm16.38-3.744c0-2.07-1.242-2.988-3.474-2.988-2.628,0-3.4,1.44-3.528,2.7h1.53c.162-.7.432-1.458,1.944-1.458,1.71,0,1.962.972,1.962,1.782v.774h-1.548c-2.718,0-4.32.936-4.32,2.97a2.764,2.764,0,0,0,3.078,2.79,2.908,2.908,0,0,0,2.826-1.4A4.707,4.707,0,0,0,336.78,160h1.512a14.161,14.161,0,0,1-.126-2Zm-1.548,2.2c0,1.656-.288,3.132-2.484,3.132a1.6,1.6,0,0,1-1.782-1.638c0-1.278.972-1.782,2.79-1.782h1.476ZM341.064,160h1.584v-4.824c0-1.836.684-3.15,2.412-3.15,1.386,0,1.926.918,1.926,2.3V160h1.584v-5.868c0-2.43-1.332-3.474-3.06-3.474a2.863,2.863,0,0,0-2.862,1.71,13.84,13.84,0,0,0-.072-1.494h-1.53c.018.7.018,1.512.018,2.3Zm9.954-5.328v1.44h4.716v-1.44Zm10.926-6.732c-3.2,0-4.194,3.1-4.194,6.138,0,3.06.9,6.138,4.14,6.138,3.312,0,4.14-3.294,4.14-6.228C366.03,150.964,365.13,147.94,361.944,147.94Zm.018,1.35c2.016,0,2.412,2.43,2.412,4.716,0,2.448-.378,4.86-2.466,4.86s-2.484-2.538-2.484-4.788C359.424,151.468,359.892,149.29,361.962,149.29Zm7.74,1.692a1.99,1.99,0,0,1,2.178-1.71c1.314,0,2.016.72,2.016,1.8,0,1.242-.666,1.836-2.232,1.836h-.7v1.3h.846c1.6,0,2.574.72,2.574,2.3a2.222,2.222,0,0,1-2.412,2.394,2.43,2.43,0,0,1-2.556-1.962h-1.566a3.7,3.7,0,0,0,4.05,3.276c2.934,0,4.1-1.836,4.1-3.726a2.905,2.905,0,0,0-2.07-2.988v-.036a2.464,2.464,0,0,0,1.566-2.448c0-1.584-1.116-3.078-3.564-3.078a3.441,3.441,0,0,0-3.762,3.042ZM381.78,160V148.1h-1.188a7.452,7.452,0,0,1-2.88,1.692v1.278a7.874,7.874,0,0,0,2.448-1.026V160Zm6.84.216c2.448,0,4.212-1.35,4.212-3.618a3.14,3.14,0,0,0-2.106-3.06,2.481,2.481,0,0,0,1.638-2.466c0-1.818-1.368-3.132-3.582-3.132-2.448,0-3.744,1.332-3.744,3.168a2.656,2.656,0,0,0,1.656,2.5,3.219,3.219,0,0,0-2.16,3.042C384.534,158.848,386.316,160.216,388.62,160.216Zm.072-1.314a2.287,2.287,0,0,1-2.52-2.322,2.208,2.208,0,0,1,2.52-2.286c1.566,0,2.52.792,2.52,2.286A2.232,2.232,0,0,1,388.692,158.9Zm.036-9.648a1.842,1.842,0,0,1,2.07,1.908c0,1.1-.63,1.782-2.052,1.782-1.494,0-2.142-.846-2.142-1.836C386.6,150.01,387.216,149.254,388.728,149.254Z" transform="translate(590 5436)"/>
    <g id="그룹_19961" data-name="그룹 19961" transform="translate(-531.962 4102.222)">
      <g id="그룹_19960" data-name="그룹 19960" transform="translate(1210.485 1355.733)">
        <path id="패스_19927" data-name="패스 19927" d="M1215.9,1360.183a2.578,2.578,0,0,1-2.705,2.135c-1.807,0-2.894-1.3-2.894-3.337,0-1.833,1.049-3.4,2.982-3.4a2.426,2.426,0,0,1,2.617,2.174h-1.227a1.329,1.329,0,0,0-1.414-1.151c-1.075,0-1.682.923-1.682,2.339,0,1.441.594,2.364,1.643,2.364a1.438,1.438,0,0,0,1.453-1.125Z" transform="translate(-1210.305 -1355.582)"/>
      </g>
      <circle id="타원_9" data-name="타원 9" cx="6.5" cy="6.5" r="6.5" transform="translate(1206.962 1352.778)" fill="none" stroke="#000" stroke-width="1"/>
    </g>
    <path id="패스_23309" data-name="패스 23309" d="M0,0V13" transform="translate(636.5 5487.5)" fill="none" stroke="#000" stroke-width="1"/>
    <path id="패스_23310" data-name="패스 23310" d="M0,0V13" transform="translate(665.5 5520.5)" fill="none" stroke="#000" stroke-width="1"/>
  </g>
</svg>
