<svg xmlns="http://www.w3.org/2000/svg" width="29.321" height="23.278" viewBox="0 0 29.321 23.278">
  <style>
    .icon{
      fill:var(--icon-color);
    }
  </style>
  <g id="그룹_19985" data-name="그룹 19985" transform="translate(0 0.75)">
    <path class="icon" id="패스_8" data-name="패스 8" d="M237,356h17.694c.936,0,1.531.624,1.28,1.361l-2.091,6.161a2.042,2.042,0,0,1-1.912,1.325H238.361" transform="translate(-227.472 -353.278)" fill="none" stroke="#000" stroke-width="1.5"/>
    <path class="icon" id="패스_9" data-name="패스 9" d="M249.542,367.653H236.274c-.851,0-1.37-.448-1.8-1.366-.469-1.011-3.293-10.02-4.368-13.346a1.359,1.359,0,0,0-1.3-.941H223" transform="translate(-223 -352)" fill="none" stroke="#000" stroke-width="1.5"/>
    <ellipse id="타원_1" data-name="타원 1" cx="2.047" cy="2.047" rx="2.047" ry="2.047" transform="translate(10.117 17.684)" fill="none" stroke="#000" stroke-width="1.5"/>
    <ellipse id="타원_2" data-name="타원 2" cx="2.047" cy="2.047" rx="2.047" ry="2.047" transform="translate(22.377 17.684)" fill="none" stroke="#000" stroke-width="1.5"/>
  </g>
</svg>
