<svg xmlns="http://www.w3.org/2000/svg" xmlns:xlink="http://www.w3.org/1999/xlink" width="342.48" height="54.621" viewBox="0 0 342.48 54.621">
  <defs>
    <clipPath id="clip-path">
      <path class="myicon" id="패스_2" data-name="패스 2" d="M0,28.465H342.48V-26.156H0Z" transform="translate(0 26.156)"/>
    </clipPath>
  </defs>
  <g id="footer-logo" clip-path="url(#clip-path)">
    <g id="그룹_1" data-name="그룹 1" transform="translate(0 -0.002)">
      <path class="myicon" id="패스_1" data-name="패스 1" d="M178.48,13.9c0-6.563-3.224-14.242-12.952-14.242-9.2,0-13.716,6.975-13.716,15.942,0,7.735,3.928,15.3,13.363,15.3,8.441,0,11.6-5.275,12.776-9.084h-5.8c-.879,2.109-2.345,4.337-6.8,4.337-4.866,0-7.679-4.162-7.737-9.788h20.747a16.553,16.553,0,0,0,.117-2.462m-5.8-1.466H157.791c.47-4.864,2.637-8.322,7.679-8.322,4.864,0,7.15,3.692,7.209,8.322M129.211,7.685c0-1.817,1.172-3.692,5.1-3.692,4.454,0,5.745,2.579,6.154,4.337h5.509c-.351-4.1-3.458-8.675-11.429-8.675-7.91,0-11.018,4.279-11.018,8.5,0,4.1,1.7,6.8,10.492,8.907,5.392,1.349,6.739,2.521,6.739,5.158,0,2.521-1.581,4.22-5.684,4.22-3.868,0-6.213-1.758-6.975-4.866h-5.743c.762,5.333,4.513,9.32,12.484,9.32,7.794,0,11.839-3.928,11.839-9.143,0-4.4-1.7-7.5-10.959-9.671-5.333-1.288-6.505-2.287-6.505-4.4m-11.252,6.8C117.959,5.4,112.918-.345,106-.345c-4.981,0-7.969,2.345-9.493,5.217A41.99,41.99,0,0,0,96.274.359H90.7c.058,2.345.058,4.805.058,7.267V41.853h5.745V26.732c1.288,2.228,3.751,4.162,8.439,4.162,7.209,0,13.012-5.745,13.012-16.41m-5.92.234c0,7.092-2.754,11.369-8.029,11.369-5.86,0-7.794-4.043-7.794-10.842,0-7.031,2.285-10.782,8.2-10.782,4.864,0,7.618,4.1,7.618,10.256M77.736,30.19h5.45a49.573,49.573,0,0,1-.411-6.739V9.5c0-6.8-4.043-9.846-11.486-9.846C62.615-.4,59.919,4.285,59.51,8.622h5.567c.468-2.285,1.288-4.571,6.035-4.571,5.217,0,6.037,2.988,6.037,5.509v2.4H72.227c-8.85,0-14.125,3.105-14.125,9.788,0,4.513,2.988,9.143,10.08,9.143,5.684,0,8.029-2.462,9.026-4.4a17.928,17.928,0,0,0,.528,3.692m-.528-13.421c0,5.1-.938,9.729-7.735,9.729-3.517,0-5.511-2.168-5.511-5.1,0-3.926,2.932-5.567,8.675-5.567h4.571ZM43.411,30.19H50.8V-12.423H45.167V2.756c0,6.683-.058,15.067.353,20.108h-.058c-2.228-4.4-14.3-25.792-19.985-35.288H17.623V30.19h5.684V14.66c0-7.384-.058-16.416-.351-20.87h.117c2.462,4.63,15.121,27.726,20.338,36.4m-50.24,0h5.743V-12.77H-6.829Zm-12.64,0h5.45a49.671,49.671,0,0,1-.409-6.739V9.5c0-6.8-4.045-9.846-11.488-9.846C-34.591-.4-37.287,4.285-37.7,8.622h5.567c.47-2.285,1.291-4.571,6.037-4.571,5.217,0,6.037,2.988,6.037,5.509v2.4h-4.924c-8.85,0-14.125,3.105-14.125,9.788,0,4.513,2.99,9.143,10.082,9.143,5.684,0,8.027-2.462,9.026-4.4a18.108,18.108,0,0,0,.526,3.692M-20,16.769c0,5.1-.938,9.729-7.737,9.729-3.517,0-5.509-2.168-5.509-5.1,0-3.926,2.93-5.567,8.675-5.567H-20ZM-43.234,5.342V-.345c-4.983.117-8.439,2.7-9.963,6.624,0-2.638-.058-5.1-.175-5.92H-59c0,1.758.058,4.162.058,8.088V30.19H-53.2V16.007c0-7.677,3.868-10.548,9.963-10.665M-73.065,30.19h5.626c0-1.934-.058-5.8-.058-8.675V.359h-5.743V15.948c0,7.209-1.992,10.022-7.15,10.022-4.688,0-5.86-3.456-5.86-7.267V.359H-92V19.935c0,8.2,4.63,10.959,9.9,10.959,4.513,0,7.326-1.758,8.85-4.983a38.354,38.354,0,0,0,.175,4.279M-97.755,16.36a16.555,16.555,0,0,0,.117-2.462c0-6.563-3.224-14.242-12.954-14.242-9.2,0-13.714,6.975-13.714,15.942,0,7.735,3.926,15.3,13.363,15.3,8.439,0,11.6-5.275,12.776-9.084h-5.8c-.879,2.109-2.345,4.337-6.8,4.337-4.864,0-7.677-4.162-7.735-9.788Zm-5.686-3.928h-14.885c.468-4.864,2.638-8.322,7.677-8.322,4.866,0,7.15,3.692,7.209,8.322m-34.77,17.759h7.384V-12.423h-5.626V2.756c0,6.683-.061,15.067.351,20.108h-.059c-2.228-4.4-14.3-25.792-19.985-35.288H-164V30.19h5.684V14.66c0-7.384-.059-16.416-.351-20.87h.117c2.462,4.63,15.121,27.726,20.338,36.4" transform="translate(164 12.77)"/>
    </g>
  </g>
</svg>
