<svg xmlns="http://www.w3.org/2000/svg" xmlns:xlink="http://www.w3.org/1999/xlink" width="304.836" height="48.618" viewBox="0 0 304.836 48.618">
  <defs>
    <clipPath id="clip-path">
      <path class="myicon" id="패스_2" data-name="패스 2" d="M0,22.462H304.836V-26.156H0Z" transform="translate(0 26.156)"/>
    </clipPath>
  </defs>
  <g id="그룹_19980" data-name="그룹 19980" transform="translate(0 26.156)">
    <g id="그룹_2" data-name="그룹 2" transform="translate(0 -26.156)" clip-path="url(#clip-path)">
      <g id="그룹_1" data-name="그룹 1" transform="translate(0 -0.002)">
        <path class="myicon" id="패스_1" data-name="패스 1" d="M140.836,10.966c0-5.842-2.87-12.677-11.528-12.677-8.19,0-12.208,6.208-12.208,14.19,0,6.885,3.5,13.615,11.894,13.615,7.513,0,10.329-4.7,11.372-8.086H135.2c-.783,1.877-2.087,3.861-6.05,3.861-4.331,0-6.835-3.7-6.887-8.712h18.467a14.735,14.735,0,0,0,.1-2.191m-5.164-1.3H122.421c.418-4.329,2.348-7.407,6.835-7.407,4.329,0,6.364,3.286,6.416,7.407M96.982,5.437c0-1.617,1.043-3.286,4.537-3.286,3.965,0,5.113,2.3,5.478,3.861h4.9c-.312-3.652-3.078-7.721-10.173-7.721-7.041,0-9.807,3.809-9.807,7.565,0,3.651,1.513,6.05,9.338,7.928,4.8,1.2,6,2.244,6,4.591,0,2.244-1.407,3.757-5.06,3.757-3.442,0-5.53-1.565-6.208-4.331H90.878c.678,4.747,4.017,8.3,11.112,8.3,6.937,0,10.537-3.5,10.537-8.138,0-3.913-1.513-6.679-9.755-8.608-4.747-1.147-5.79-2.035-5.79-3.913M86.967,11.489c0-8.086-4.487-13.2-10.643-13.2-4.433,0-7.093,2.087-8.45,4.643a37.373,37.373,0,0,0-.208-4.017H62.709c.052,2.087.052,4.277.052,6.468V35.849h5.113V22.39c1.147,1.983,3.338,3.7,7.511,3.7,6.416,0,11.582-5.113,11.582-14.606M81.7,11.7c0,6.312-2.452,10.119-7.147,10.119-5.216,0-6.937-3.6-6.937-9.651,0-6.258,2.033-9.6,7.3-9.6,4.329,0,6.781,3.651,6.781,9.128M51.166,25.468h4.851a44.124,44.124,0,0,1-.366-6V7.054c0-6.05-3.6-8.764-10.223-8.764C37.707-1.762,35.307,2.41,34.943,6.271H39.9C40.314,4.238,41.045,2.2,45.27,2.2c4.643,0,5.374,2.66,5.374,4.9V9.245H46.262c-7.877,0-12.573,2.764-12.573,8.712,0,4.017,2.66,8.138,8.972,8.138,5.06,0,7.147-2.191,8.034-3.913a15.957,15.957,0,0,0,.47,3.286M50.7,13.522c0,4.539-.835,8.66-6.885,8.66-3.13,0-4.905-1.929-4.905-4.539,0-3.494,2.61-4.955,7.721-4.955H50.7ZM20.613,25.468h6.573v-37.93H22.177V1.05c0,5.948-.052,13.411.314,17.9h-.052C20.455,15.035,9.71-4.01,4.65-12.461H-2.34v37.93h5.06V11.645c0-6.573-.052-14.612-.312-18.576h.1c2.191,4.121,13.459,24.679,18.1,32.4m-44.718,0h5.112V-12.77H-24.1Zm-11.251,0H-30.5a44.211,44.211,0,0,1-.364-6V7.054c0-6.05-3.6-8.764-10.225-8.764-7.721-.052-10.121,4.121-10.485,7.981h4.955C-46.205,4.238-45.475,2.2-41.25,2.2c4.643,0,5.374,2.66,5.374,4.9V9.245h-4.383c-7.877,0-12.573,2.764-12.573,8.712,0,4.017,2.662,8.138,8.974,8.138,5.06,0,7.145-2.191,8.034-3.913a16.118,16.118,0,0,0,.468,3.286m-.468-11.946c0,4.539-.835,8.66-6.887,8.66-3.13,0-4.9-1.929-4.9-4.539,0-3.494,2.608-4.955,7.721-4.955h4.069ZM-56.508,3.351V-1.71c-4.435.1-7.511,2.4-8.868,5.9,0-2.348-.052-4.539-.156-5.27H-70.54c0,1.565.052,3.7.052,7.2V25.468h5.112V12.844c0-6.833,3.442-9.389,8.868-9.493M-83.06,25.468h5.007c0-1.721-.052-5.164-.052-7.721V-1.084h-5.112V12.792c0,6.416-1.773,8.92-6.364,8.92-4.173,0-5.216-3.076-5.216-6.468V-1.084H-99.91V16.34c0,7.3,4.121,9.755,8.816,9.755,4.017,0,6.521-1.565,7.877-4.435a34.138,34.138,0,0,0,.156,3.809m-21.976-12.311a14.735,14.735,0,0,0,.1-2.191c0-5.842-2.87-12.677-11.53-12.677-8.19,0-12.206,6.208-12.206,14.19,0,6.885,3.494,13.615,11.894,13.615,7.511,0,10.329-4.7,11.372-8.086h-5.164c-.783,1.877-2.087,3.861-6.052,3.861-4.329,0-6.833-3.7-6.885-8.712Zm-5.061-3.5h-13.249c.416-4.329,2.348-7.407,6.833-7.407,4.331,0,6.364,3.286,6.416,7.407m-30.948,15.807h6.573v-37.93h-5.007V1.05c0,5.948-.054,13.411.312,17.9h-.052C-141.2,15.035-151.95-4.01-157.009-12.461H-164v37.93h5.06V11.645c0-6.573-.052-14.612-.312-18.576h.1c2.191,4.121,13.459,24.679,18.1,32.4" transform="translate(164 12.77)"/>
      </g>
    </g>
  </g>
</svg>
