<?xml version="1.0" encoding="utf-8"?>
<!-- Generator: Adobe Illustrator 26.5.0, SVG Export Plug-In . SVG Version: 6.00 Build 0)  -->
<svg version="1.1" id="레이어_1" xmlns="http://www.w3.org/2000/svg" xmlns:xlink="http://www.w3.org/1999/xlink" x="0px"
	 y="0px" viewBox="0 0 15 15" style="enable-background:new 0 0 15 15;" xml:space="preserve">
<style type="text/css">
	.st0{opacity:0.6;fill:#160F0F;}
</style>
<path class="st0" d="M7.5,0C3.4,0,0,3.4,0,7.5S3.4,15,7.5,15S15,11.6,15,7.5S11.6,0,7.5,0z M10.9,10.2c0.2,0.2,0.2,0.5,0,0.7
	c-0.1,0.1-0.2,0.1-0.4,0.1s-0.3,0-0.4-0.1L7.5,8.2l-2.7,2.7c-0.1,0.1-0.2,0.1-0.4,0.1s-0.3,0-0.4-0.1c-0.2-0.2-0.2-0.5,0-0.7
	l2.7-2.7L4.1,4.8c-0.2-0.2-0.2-0.5,0-0.7s0.5-0.2,0.7,0l2.7,2.7l2.7-2.7c0.2-0.2,0.5-0.2,0.7,0s0.2,0.5,0,0.7L8.2,7.5L10.9,10.2z"/>
</svg>
